<?xml version="1.0" standalone="no"?>
<!DOCTYPE svg PUBLIC "-//W3C//DTD SVG 20010904//EN"
 "http://www.w3.org/TR/2001/REC-SVG-20010904/DTD/svg10.dtd">
<svg version="1.0" xmlns="http://www.w3.org/2000/svg"
 width="700.000000pt" height="700.000000pt" viewBox="0 0 700.000000 700.000000"
 preserveAspectRatio="xMidYMid meet">
<metadata>
Created by potrace 1.14, written by Peter Selinger 2001-2017
</metadata>
<g transform="translate(0.000000,700.000000) scale(0.100000,-0.100000)"
fill="#000000" stroke="none">
<path d="M445 6988 c-90 -16 -207 -81 -279 -154 -76 -75 -138 -190 -155 -288
-15 -84 -15 -6008 0 -6092 38 -213 230 -405 443 -443 84 -15 6008 -15 6092 0
213 38 405 230 443 443 15 84 15 6008 0 6092 -17 96 -79 213 -153 287 -73 75
-192 139 -290 156 -77 14 -6027 13 -6101 -1z m1625 -3098 l0 -100 100 0 100 0
0 -400 0 -400 -100 0 -100 0 0 200 0 200 -200 0 -200 0 0 -200 0 -200 -100 0
-100 0 0 400 0 400 100 0 100 0 0 100 0 100 200 0 200 0 0 -100z m940 0 l0
-100 100 0 100 0 0 -100 0 -100 -100 0 -100 0 0 -200 0 -200 100 0 100 0 0
-100 0 -100 -100 0 -100 0 0 100 0 100 -100 0 -100 0 0 100 0 100 -100 0 -100
0 0 -200 0 -200 -100 0 -100 0 0 500 0 500 300 0 300 0 0 -100z m550 0 l0
-100 100 0 100 0 0 -100 0 -100 100 0 100 0 0 100 0 100 100 0 100 0 0 100 0
100 100 0 100 0 0 -500 0 -500 -100 0 -100 0 0 300 0 300 -100 0 -100 0 0
-100 0 -100 -100 0 -100 0 0 100 0 100 -100 0 -100 0 0 -300 0 -300 -100 0
-100 0 0 500 0 500 100 0 100 0 0 -100z m1150 0 l0 -100 100 0 100 0 0 -100 0
-100 100 0 100 0 0 100 0 100 100 0 100 0 0 100 0 100 100 0 100 0 0 -100 0
-100 -100 0 -100 0 0 -100 0 -100 -100 0 -100 0 0 -300 0 -300 -100 0 -100 0
0 300 0 300 -100 0 -100 0 0 100 0 100 -100 0 -100 0 0 100 0 100 100 0 100 0
0 -100z"/>
<path d="M1670 3690 l0 -100 200 0 200 0 0 100 0 100 -200 0 -200 0 0 -100z"/>
<path d="M2610 3690 l0 -100 200 0 200 0 0 100 0 100 -200 0 -200 0 0 -100z"/>
</g>
</svg>
